<svg width="220" height="51" viewBox="0 0 220 51" fill="none" xmlns="http://www.w3.org/2000/svg">
<rect y="0.0938721" width="220" height="50" rx="25" fill="#005DB9"/>
<path d="M65.9512 28.0939H64.1406V21.0392H60.9883V28.0939H59.1719V19.5275H65.9512V28.0939ZM70.6855 22.6915C70.3066 22.6915 70.0098 22.8126 69.7949 23.0548C69.5801 23.2931 69.457 23.6329 69.4258 24.0743H71.9336C71.9258 23.6329 71.8105 23.2931 71.5879 23.0548C71.3652 22.8126 71.0645 22.6915 70.6855 22.6915ZM70.9375 28.2111C69.8828 28.2111 69.0586 27.92 68.4648 27.338C67.8711 26.756 67.5742 25.9318 67.5742 24.8654C67.5742 23.7677 67.8477 22.92 68.3945 22.3224C68.9453 21.7208 69.7051 21.42 70.6738 21.42C71.5996 21.42 72.3203 21.6837 72.8359 22.2111C73.3516 22.7384 73.6094 23.4669 73.6094 24.3966V25.2638H69.3848C69.4043 25.7716 69.5547 26.1681 69.8359 26.4532C70.1172 26.7384 70.5117 26.881 71.0195 26.881C71.4141 26.881 71.7871 26.84 72.1387 26.7579C72.4902 26.6759 72.8574 26.545 73.2402 26.3654V27.7482C72.9277 27.9044 72.5938 28.0197 72.2383 28.0939C71.8828 28.172 71.4492 28.2111 70.9375 28.2111ZM78.6602 28.2111C77.8906 28.2111 77.2871 27.9318 76.8496 27.3732H76.7559C76.8184 27.92 76.8496 28.2365 76.8496 28.3224V30.9767H75.0625V21.5431H76.5156L76.7676 22.3927H76.8496C77.2676 21.7443 77.8867 21.42 78.707 21.42C79.4805 21.42 80.0859 21.7189 80.5234 22.3165C80.9609 22.9142 81.1797 23.7443 81.1797 24.8068C81.1797 25.506 81.0762 26.1134 80.8691 26.629C80.666 27.1447 80.375 27.5372 79.9961 27.8068C79.6172 28.0763 79.1719 28.2111 78.6602 28.2111ZM78.1328 22.8497C77.6914 22.8497 77.3691 22.9865 77.166 23.2599C76.9629 23.5294 76.8574 23.9767 76.8496 24.6017V24.795C76.8496 25.4982 76.9531 26.0021 77.1602 26.3068C77.3711 26.6115 77.7031 26.7638 78.1562 26.7638C78.957 26.7638 79.3574 26.1036 79.3574 24.7833C79.3574 24.1388 79.2578 23.6564 79.0586 23.3361C78.8633 23.0118 78.5547 22.8497 78.1328 22.8497ZM85.3691 22.6915C84.9902 22.6915 84.6934 22.8126 84.4785 23.0548C84.2637 23.2931 84.1406 23.6329 84.1094 24.0743H86.6172C86.6094 23.6329 86.4941 23.2931 86.2715 23.0548C86.0488 22.8126 85.748 22.6915 85.3691 22.6915ZM85.6211 28.2111C84.5664 28.2111 83.7422 27.92 83.1484 27.338C82.5547 26.756 82.2578 25.9318 82.2578 24.8654C82.2578 23.7677 82.5312 22.92 83.0781 22.3224C83.6289 21.7208 84.3887 21.42 85.3574 21.42C86.2832 21.42 87.0039 21.6837 87.5195 22.2111C88.0352 22.7384 88.293 23.4669 88.293 24.3966V25.2638H84.0684C84.0879 25.7716 84.2383 26.1681 84.5195 26.4532C84.8008 26.7384 85.1953 26.881 85.7031 26.881C86.0977 26.881 86.4707 26.84 86.8223 26.7579C87.1738 26.6759 87.541 26.545 87.9238 26.3654V27.7482C87.6113 27.9044 87.2773 28.0197 86.9219 28.0939C86.5664 28.172 86.1328 28.2111 85.6211 28.2111ZM91.4746 21.5431V24.1329C91.4746 24.4064 91.4297 25.0743 91.3398 26.1368L94.3633 21.5431H96.5137V28.0939H94.7852V25.4806C94.7852 25.0157 94.8242 24.3595 94.9023 23.5118L91.8906 28.0939H89.7461V21.5431H91.4746ZM95.9863 18.7247C95.9121 19.4552 95.6367 19.9884 95.1602 20.3243C94.6836 20.6564 93.9961 20.8224 93.0977 20.8224C92.1719 20.8224 91.4863 20.6622 91.041 20.3419C90.5996 20.0216 90.3516 19.4825 90.2969 18.7247H91.8965C91.9238 19.1271 92.0234 19.4103 92.1953 19.5743C92.3711 19.7345 92.6836 19.8146 93.1328 19.8146C93.5273 19.8146 93.8203 19.7267 94.0117 19.5509C94.207 19.3712 94.3262 19.0958 94.3691 18.7247H95.9863ZM103.814 21.5431V22.8849H101.67V28.0939H99.8828V22.8849H97.7324V21.5431H103.814ZM106.768 21.5431V24.1329C106.768 24.4064 106.723 25.0743 106.633 26.1368L109.656 21.5431H111.807V28.0939H110.078V25.4806C110.078 25.0157 110.117 24.3595 110.195 23.5118L107.184 28.0939H105.039V21.5431H106.768ZM118.592 21.5431V24.0626H121.088V21.5431H122.875V28.0939H121.088V25.3927H118.592V28.0939H116.805V21.5431H118.592ZM128.91 28.0939L128.564 27.2032H128.518C128.217 27.5822 127.906 27.8458 127.586 27.9943C127.27 28.1388 126.855 28.2111 126.344 28.2111C125.715 28.2111 125.219 28.0314 124.855 27.672C124.496 27.3126 124.316 26.8009 124.316 26.1368C124.316 25.4415 124.559 24.9298 125.043 24.6017C125.531 24.2697 126.266 24.0861 127.246 24.0509L128.383 24.0157V23.7286C128.383 23.0646 128.043 22.7325 127.363 22.7325C126.84 22.7325 126.225 22.8907 125.518 23.2072L124.926 22.0001C125.68 21.6056 126.516 21.4083 127.434 21.4083C128.312 21.4083 128.986 21.5997 129.455 21.9825C129.924 22.3654 130.158 22.9474 130.158 23.7286V28.0939H128.91ZM128.383 25.0587L127.691 25.0822C127.172 25.0978 126.785 25.1915 126.531 25.3634C126.277 25.5353 126.15 25.797 126.15 26.1486C126.15 26.6525 126.439 26.9044 127.018 26.9044C127.432 26.9044 127.762 26.7853 128.008 26.547C128.258 26.3087 128.383 25.9923 128.383 25.5978V25.0587ZM137.781 28.2111C135.742 28.2111 134.723 27.0919 134.723 24.8536C134.723 23.7404 135 22.8907 135.555 22.3048C136.109 21.715 136.904 21.42 137.939 21.42C138.697 21.42 139.377 21.5685 139.979 21.8654L139.451 23.2482C139.17 23.1349 138.908 23.0431 138.666 22.9728C138.424 22.8986 138.182 22.8615 137.939 22.8615C137.01 22.8615 136.545 23.5216 136.545 24.8419C136.545 26.1232 137.01 26.7638 137.939 26.7638C138.283 26.7638 138.602 26.7189 138.895 26.629C139.188 26.5353 139.48 26.3907 139.773 26.1954V27.7247C139.484 27.9083 139.191 28.0353 138.895 28.1056C138.602 28.1759 138.23 28.2111 137.781 28.2111ZM145.457 28.0939L145.111 27.2032H145.064C144.764 27.5822 144.453 27.8458 144.133 27.9943C143.816 28.1388 143.402 28.2111 142.891 28.2111C142.262 28.2111 141.766 28.0314 141.402 27.672C141.043 27.3126 140.863 26.8009 140.863 26.1368C140.863 25.4415 141.105 24.9298 141.59 24.6017C142.078 24.2697 142.812 24.0861 143.793 24.0509L144.93 24.0157V23.7286C144.93 23.0646 144.59 22.7325 143.91 22.7325C143.387 22.7325 142.771 22.8907 142.064 23.2072L141.473 22.0001C142.227 21.6056 143.062 21.4083 143.98 21.4083C144.859 21.4083 145.533 21.5997 146.002 21.9825C146.471 22.3654 146.705 22.9474 146.705 23.7286V28.0939H145.457ZM144.93 25.0587L144.238 25.0822C143.719 25.0978 143.332 25.1915 143.078 25.3634C142.824 25.5353 142.697 25.797 142.697 26.1486C142.697 26.6525 142.986 26.9044 143.564 26.9044C143.979 26.9044 144.309 26.7853 144.555 26.547C144.805 26.3087 144.93 25.9923 144.93 25.5978V25.0587ZM150.279 21.5431V24.1329C150.279 24.4064 150.234 25.0743 150.145 26.1368L153.168 21.5431H155.318V28.0939H153.59V25.4806C153.59 25.0157 153.629 24.3595 153.707 23.5118L150.695 28.0939H148.551V21.5431H150.279ZM154.791 18.7247C154.717 19.4552 154.441 19.9884 153.965 20.3243C153.488 20.6564 152.801 20.8224 151.902 20.8224C150.977 20.8224 150.291 20.6622 149.846 20.3419C149.404 20.0216 149.156 19.4825 149.102 18.7247H150.701C150.729 19.1271 150.828 19.4103 151 19.5743C151.176 19.7345 151.488 19.8146 151.938 19.8146C152.332 19.8146 152.625 19.7267 152.816 19.5509C153.012 19.3712 153.131 19.0958 153.174 18.7247H154.791ZM162.619 21.5431V22.8849H160.475V28.0939H158.688V22.8849H156.537V21.5431H162.619Z" fill="white"/>
</svg>
