<svg width="68" height="40" viewBox="0 0 68 40" fill="none" xmlns="http://www.w3.org/2000/svg">
<path fill-rule="evenodd" clip-rule="evenodd" d="M34.4803 1C15.5249 1 1 7.39222 1 7.39222C1 7.39222 15.1827 2.56783 34.4742 2.56783C53.7664 2.56783 67.6457 7.41655 67.6457 7.41655C67.6457 7.41655 53.4356 1 34.4803 1ZM34.4803 39.8204C15.5249 39.8204 1 33.4282 1 33.4282C1 33.4282 15.1827 38.2518 34.4742 38.2518C53.7664 38.2518 67.6457 33.4031 67.6457 33.4031C67.6457 33.4031 53.4356 39.8204 34.4803 39.8204Z" fill="#D60058"/>
<path d="M1 7.39222L0.944362 7.26579C0.876671 7.29558 0.844455 7.3734 0.871284 7.44232C0.898112 7.51124 0.974465 7.5468 1.04448 7.52298L1 7.39222ZM67.6457 7.41655L67.6002 7.54694C67.6699 7.57132 67.7466 7.53644 67.774 7.46779C67.8014 7.39915 67.7699 7.32108 67.7026 7.29066L67.6457 7.41655ZM1 33.4282L1.04448 33.2974C0.974459 33.2736 0.898109 33.3091 0.871283 33.3781C0.844456 33.447 0.876672 33.5248 0.944362 33.5546L1 33.4282ZM67.6457 33.4031L67.7026 33.5289C67.7699 33.4985 67.8014 33.4205 67.774 33.3518C67.7466 33.2832 67.6699 33.2483 67.6002 33.2727L67.6457 33.4031ZM1 7.39222C1.05564 7.51864 1.05566 7.51863 1.05574 7.51859C1.05585 7.51855 1.05598 7.51849 1.05618 7.5184C1.05659 7.51822 1.05721 7.51795 1.05805 7.51758C1.05974 7.51684 1.06231 7.51572 1.06576 7.51422C1.07265 7.51121 1.08305 7.5067 1.09692 7.50072C1.12465 7.48877 1.16626 7.47096 1.22142 7.4477C1.33176 7.40116 1.49635 7.33279 1.71272 7.24568C2.14547 7.07147 2.78534 6.82237 3.61264 6.52333C5.26727 5.92524 7.67141 5.12746 10.6674 4.32958C16.6598 2.73372 25.0176 1.13813 34.4803 1.13813V0.861875C24.9875 0.861875 16.6052 2.46239 10.5963 4.06263C7.59166 4.86281 5.17987 5.66308 3.51873 6.26353C2.68815 6.56376 2.04518 6.81405 1.60956 6.98942C1.39174 7.0771 1.22576 7.14606 1.11407 7.19316C1.05823 7.21671 1.01596 7.2348 0.987573 7.24703C0.973379 7.25315 0.962656 7.25781 0.955441 7.26095C0.951834 7.26252 0.949104 7.26371 0.947256 7.26452C0.946332 7.26493 0.945628 7.26524 0.945146 7.26545C0.944905 7.26555 0.944709 7.26564 0.944588 7.26569C0.944448 7.26575 0.944362 7.26579 1 7.39222ZM34.4742 2.42971C24.8172 2.42971 16.4393 3.63717 10.4754 4.84464C7.49329 5.44841 5.11442 6.05224 3.48057 6.5053C2.66363 6.73184 2.03293 6.92068 1.60619 7.05299C1.39282 7.11914 1.23043 7.17116 1.12125 7.20669C1.06666 7.22445 1.02536 7.2381 0.997651 7.24732C0.983794 7.25193 0.973332 7.25544 0.966298 7.25781C0.962781 7.25899 0.960122 7.25989 0.958324 7.2605C0.957425 7.2608 0.956741 7.26103 0.956273 7.26119C0.956039 7.26127 0.955851 7.26134 0.955734 7.26138C0.955599 7.26142 0.955518 7.26145 1 7.39222C1.04448 7.52298 1.04451 7.52297 1.04459 7.52294C1.04469 7.52291 1.04483 7.52286 1.04502 7.5228C1.04542 7.52266 1.04603 7.52246 1.04686 7.52218C1.04852 7.52162 1.05103 7.52076 1.05441 7.51963C1.06116 7.51736 1.07133 7.51395 1.0849 7.50943C1.11203 7.5004 1.15273 7.48695 1.20673 7.46938C1.31472 7.43424 1.47588 7.38261 1.68799 7.31685C2.11223 7.18532 2.74026 6.99726 3.55439 6.77151C5.18265 6.32 7.55517 5.71773 10.5302 5.1154C16.4805 3.91068 24.8397 2.70596 34.4742 2.70596V2.42971ZM67.6457 7.41655C67.6913 7.28615 67.6912 7.28612 67.6911 7.28607C67.6909 7.28603 67.6908 7.28597 67.6905 7.28589C67.6901 7.28573 67.6894 7.2855 67.6885 7.28519C67.6867 7.28458 67.6841 7.28367 67.6807 7.28248C67.6738 7.2801 67.6635 7.27657 67.65 7.27193C67.6228 7.26265 67.5824 7.24894 67.5289 7.23108C67.4219 7.19536 67.2627 7.14306 67.0535 7.07657C66.635 6.94357 66.0161 6.75375 65.2133 6.52605C63.6078 6.07066 61.2667 5.46374 58.3224 4.85691C52.434 3.64328 44.1316 2.42971 34.4742 2.42971V2.70596C44.109 2.70596 52.3923 3.91674 58.2666 5.12747C61.2037 5.73281 63.5382 6.33807 65.1379 6.79182C65.9378 7.01869 66.5539 7.20767 66.9698 7.33984C67.1778 7.40592 67.3356 7.4578 67.4414 7.49311C67.4943 7.51076 67.5341 7.52427 67.5606 7.53334C67.5739 7.53788 67.5839 7.5413 67.5905 7.54358C67.5938 7.54472 67.5962 7.54558 67.5978 7.54614C67.5986 7.54642 67.5993 7.54663 67.5996 7.54676C67.5998 7.54683 67.6 7.54687 67.6001 7.54691C67.6001 7.54693 67.6002 7.54694 67.6457 7.41655ZM34.4803 1.13813C43.9428 1.13813 52.2217 2.73976 58.1351 4.34159C61.0917 5.14246 63.4563 5.94322 65.0813 6.54353C65.8938 6.84368 66.5214 7.09369 66.9455 7.26853C67.1575 7.35595 67.3187 7.42458 67.4267 7.47127C67.4807 7.49462 67.5214 7.51248 67.5485 7.52447C67.5621 7.53047 67.5723 7.535 67.579 7.538C67.5824 7.53951 67.5849 7.54063 67.5865 7.54137C67.5873 7.54174 67.588 7.54202 67.5883 7.54219C67.5885 7.54228 67.5887 7.54234 67.5888 7.54239C67.5888 7.54242 67.5889 7.54243 67.6457 7.41655C67.7026 7.29066 67.7025 7.29062 67.7023 7.29056C67.7022 7.29051 67.702 7.29042 67.7018 7.29031C67.7013 7.2901 67.7006 7.28979 67.6997 7.28938C67.6979 7.28857 67.6952 7.28737 67.6917 7.28579C67.6846 7.28263 67.6741 7.27795 67.6602 7.27181C67.6324 7.25952 67.591 7.24135 67.5363 7.2177C67.4269 7.1704 67.2643 7.10117 67.0508 7.01314C66.6237 6.83707 65.993 6.5858 65.1771 6.28439C63.5453 5.6816 61.1728 4.87823 58.2074 4.07495C52.2769 2.46851 43.9731 0.861875 34.4803 0.861875V1.13813ZM1 33.4282C0.944362 33.5546 0.944448 33.5546 0.944588 33.5547C0.944709 33.5547 0.944905 33.5548 0.945146 33.5549C0.945628 33.5551 0.946332 33.5554 0.947256 33.5559C0.949104 33.5567 0.951834 33.5579 0.955441 33.5594C0.962656 33.5626 0.973379 33.5672 0.987573 33.5733C1.01596 33.5856 1.05823 33.6037 1.11407 33.6272C1.22576 33.6743 1.39174 33.7433 1.60956 33.831C2.04518 34.0063 2.68815 34.2566 3.51873 34.5568C5.17987 35.1573 7.59166 35.9576 10.5963 36.7577C16.6052 38.358 24.9875 39.9585 34.4803 39.9585V39.6822C25.0176 39.6822 16.6598 38.0867 10.6674 36.4908C7.67141 35.6929 5.26727 34.8951 3.61264 34.297C2.78534 33.998 2.14547 33.7489 1.71272 33.5747C1.49635 33.4876 1.33176 33.4192 1.22142 33.3727C1.16626 33.3494 1.12465 33.3316 1.09692 33.3196C1.08305 33.3137 1.07265 33.3092 1.06576 33.3062C1.06231 33.3047 1.05974 33.3035 1.05805 33.3028C1.05721 33.3024 1.05659 33.3022 1.05618 33.302C1.05598 33.3019 1.05585 33.3018 1.05574 33.3018C1.05566 33.3017 1.05564 33.3017 1 33.4282ZM34.4742 38.1137C24.8397 38.1137 16.4805 36.9091 10.5302 35.7046C7.55516 35.1024 5.18265 34.5002 3.55438 34.0487C2.74026 33.823 2.11222 33.635 1.68799 33.5035C1.47587 33.4377 1.31471 33.3861 1.20672 33.351C1.15273 33.3334 1.11202 33.32 1.08489 33.3109C1.07132 33.3064 1.06115 33.303 1.0544 33.3007C1.05103 33.2996 1.04851 33.2988 1.04686 33.2982C1.04603 33.2979 1.04541 33.2977 1.04502 33.2976C1.04482 33.2975 1.04468 33.2975 1.04458 33.2974C1.0445 33.2974 1.04448 33.2974 1 33.4282C0.955525 33.5589 0.955605 33.559 0.95574 33.559C0.955857 33.559 0.956046 33.5591 0.95628 33.5592C0.956747 33.5593 0.957431 33.5596 0.95833 33.5599C0.960128 33.5605 0.962788 33.5614 0.966304 33.5626C0.973338 33.5649 0.983801 33.5684 0.997657 33.5731C1.02537 33.5823 1.06666 33.5959 1.12125 33.6137C1.23044 33.6492 1.39282 33.7012 1.60619 33.7674C2.03294 33.8996 2.66364 34.0885 3.48057 34.315C5.11442 34.7679 7.4933 35.3717 10.4754 35.9753C16.4393 37.1826 24.8172 38.3899 34.4742 38.3899V38.1137ZM67.6457 33.4031C67.6002 33.2727 67.6001 33.2727 67.6001 33.2727C67.6 33.2727 67.5998 33.2728 67.5996 33.2729C67.5993 33.273 67.5986 33.2732 67.5978 33.2735C67.5962 33.274 67.5938 33.2749 67.5905 33.276C67.5839 33.2783 67.5739 33.2817 67.5606 33.2863C67.5341 33.2953 67.4943 33.3088 67.4414 33.3265C67.3356 33.3618 67.1778 33.4137 66.9698 33.4798C66.5539 33.6119 65.9378 33.8009 65.1379 34.0278C63.5382 34.4815 61.2037 35.0868 58.2666 35.6921C52.3923 36.9029 44.109 38.1137 34.4742 38.1137V38.3899C44.1316 38.3899 52.434 37.1763 58.3224 35.9627C61.2667 35.3559 63.6078 34.7489 65.2133 34.2936C66.0161 34.0659 66.635 33.876 67.0535 33.743C67.2627 33.6765 67.4219 33.6243 67.5289 33.5885C67.5824 33.5707 67.6228 33.557 67.65 33.5477C67.6635 33.543 67.6738 33.5395 67.6807 33.5371C67.6841 33.5359 67.6867 33.535 67.6885 33.5344C67.6894 33.5341 67.6901 33.5339 67.6905 33.5337C67.6908 33.5336 67.6909 33.5336 67.6911 33.5335C67.6912 33.5335 67.6913 33.5335 67.6457 33.4031ZM34.4803 39.9585C43.9731 39.9585 52.2769 38.3517 58.2074 36.745C61.1728 35.9417 63.5453 35.1382 65.1771 34.5353C65.993 34.2339 66.6237 33.9826 67.0508 33.8065C67.2643 33.7185 67.4269 33.6492 67.5363 33.6019C67.591 33.5783 67.6324 33.5601 67.6602 33.5478C67.6741 33.5417 67.6846 33.537 67.6917 33.5338C67.6952 33.5322 67.6979 33.531 67.6997 33.5302C67.7006 33.5298 67.7013 33.5295 67.7018 33.5293C67.702 33.5292 67.7022 33.5291 67.7023 33.529C67.7025 33.529 67.7026 33.5289 67.6457 33.4031C67.5889 33.2772 67.5888 33.2772 67.5888 33.2772C67.5887 33.2773 67.5885 33.2773 67.5883 33.2774C67.5879 33.2776 67.5873 33.2779 67.5865 33.2782C67.5849 33.279 67.5824 33.2801 67.579 33.2816C67.5723 33.2846 67.5621 33.2891 67.5485 33.2951C67.5214 33.3071 67.4807 33.325 67.4267 33.3484C67.3187 33.3951 67.1575 33.4637 66.9454 33.5511C66.5214 33.726 65.8938 33.976 65.0813 34.2762C63.4563 34.8766 61.0917 35.6774 58.1351 36.4784C52.2217 38.0804 43.9428 39.6822 34.4803 39.6822V39.9585Z" fill="white"/>
<path fill-rule="evenodd" clip-rule="evenodd" d="M9.72426 16.6213C11.172 16.6213 12.5946 16.9771 13.9906 17.688L14.9402 16.6342C13.5701 15.7066 11.87 15.2428 9.8406 15.2428C8.33207 15.2428 7.16342 15.4983 6.33541 16.01C5.50663 16.5217 5.09301 17.2197 5.09301 18.1047C5.09301 18.9631 5.45721 19.5745 6.18562 19.9387C6.80986 20.2512 7.89792 20.4587 9.45054 20.5629C11.2024 20.6762 12.2775 20.7842 12.6767 20.8883C13.4401 21.0883 13.8218 21.4867 13.8218 22.0851C13.8218 22.5968 13.5313 22.9998 12.9496 23.2948C12.3429 23.5982 11.4883 23.7503 10.3873 23.7503C8.68791 23.7503 7.10032 23.2994 5.62601 22.3969L4.76758 23.529C6.1035 24.5874 7.97167 25.1158 10.3744 25.1158C12.0304 25.1158 13.3009 24.8429 14.186 24.2962C15.0702 23.7503 15.5128 22.9785 15.5128 21.9809C15.5128 21.2008 15.2307 20.5979 14.6673 20.1728C14.1031 19.7478 13.2317 19.4574 12.0524 19.3007C11.6365 19.249 10.7773 19.1798 9.47715 19.0932C8.59211 19.0407 7.95494 18.9457 7.56489 18.8073C7.0182 18.6164 6.74523 18.3123 6.74523 17.8964C6.74523 17.4972 7.00071 17.1855 7.51242 16.9596C8.02413 16.7346 8.76167 16.6213 9.72426 16.6213ZM36.5832 24.8947H38.2902L33.3076 15.4763H31.3437L26.3611 24.8947H28.0689L29.1539 22.7877H35.4974L36.5832 24.8947ZM62.3256 24.8947H64.0333L59.0515 15.4763H57.0868L52.1043 24.8947H53.812L54.897 22.7877H61.2406L62.3256 24.8947ZM58.0836 16.8198L60.4825 21.3826H55.6551L58.0836 16.8198ZM46.5116 23.4898C47.4475 23.4898 48.217 23.1879 48.82 22.5827C49.4221 21.9774 49.724 21.2004 49.724 20.2507C49.724 19.2417 49.4009 18.4274 48.7553 17.8085C48.109 17.1911 47.2613 16.8816 46.212 16.8816H41.6849V23.4898H46.5116ZM49.978 16.7843C49.0199 15.9122 47.7213 15.4765 46.082 15.4765H40.1239V24.8949H46.3808C47.7775 24.8949 48.9485 24.4782 49.8936 23.6456C50.9086 22.753 51.415 21.6345 51.415 20.2895C51.415 18.8243 50.936 17.6556 49.978 16.7843ZM34.7394 21.3826L32.3405 16.8198L29.9119 21.3826H34.7394ZM27.2981 16.8817H22.7969V24.895H21.2359V16.8817H16.7354V15.4766H27.2981V16.8817Z" fill="#005DB9"/>
</svg>
