<svg width="18" height="13" viewBox="0 0 18 13" fill="none" xmlns="http://www.w3.org/2000/svg">
<path fill-rule="evenodd" clip-rule="evenodd" d="M0.963989 11.9521L5.76084 7.17692L0.963989 2.4021V11.9521Z" fill="#343434"/>
<mask id="mask0_70_621" style="mask-type:alpha" maskUnits="userSpaceOnUse" x="1" y="2" width="16" height="8">
<path fill-rule="evenodd" clip-rule="evenodd" d="M1.61823 2.15161H16.3137V9.15066H1.61823V2.15161V2.15161Z" fill="white"/>
</mask>
<g mask="url(#mask0_70_621)">
<path fill-rule="evenodd" clip-rule="evenodd" d="M9.49382 8.93997L16.3137 2.15125H1.61823L8.43813 8.93997C8.72005 9.22062 9.2119 9.22062 9.49382 8.93997Z" fill="#343434"/>
</g>
<mask id="mask1_70_621" style="mask-type:alpha" maskUnits="userSpaceOnUse" x="1" y="7" width="16" height="6">
<path fill-rule="evenodd" clip-rule="evenodd" d="M1.47424 12.3453H16.4568V7.62732H1.47424L1.47424 12.3453Z" fill="white"/>
</mask>
<g mask="url(#mask1_70_621)">
<path fill-rule="evenodd" clip-rule="evenodd" d="M11.7169 7.62732L9.94568 9.39052C9.68392 9.65142 9.33576 9.79509 8.9652 9.79509C8.59495 9.79509 8.24647 9.65142 7.98503 9.39052L6.21381 7.62764L1.47424 12.3454H16.4568L11.7169 7.62732Z" fill="#343434"/>
</g>
<path fill-rule="evenodd" clip-rule="evenodd" d="M12.1697 7.17689L16.964 11.9495V2.4043L12.1697 7.17689Z" fill="#343434"/>
</svg>
