<svg width="17" height="18" viewBox="0 0 17 18" fill="none" xmlns="http://www.w3.org/2000/svg">
<path fill-rule="evenodd" clip-rule="evenodd" d="M15.4832 13.8486L15.452 13.8253C15.452 13.8253 13.532 12.5407 12.6809 11.9659C12.3534 11.7443 12.0215 11.632 11.6956 11.632C11.2436 11.632 10.967 11.8513 10.9371 11.8763L10.9009 11.9112C10.8992 11.9132 10.7422 12.0893 10.3879 12.3879C10.0459 12.676 9.54382 12.6233 9.14744 12.2529C8.64143 11.7808 5.83485 8.30297 4.95583 7.11877C4.7797 6.88108 4.71057 6.66544 4.74481 6.45902C4.8146 6.03466 5.31863 5.68536 5.58958 5.4977L5.68538 5.43087C6.23123 5.04009 6.2895 4.36091 6.11304 3.89474C5.99781 3.59153 4.86234 1.15301 4.72538 0.88009C4.56407 0.557785 4.2974 0.187744 3.66563 0.187744C3.30514 0.187744 2.36456 0.327662 1.75979 0.759925L1.62481 0.854082C1.07765 1.23235 0.0587158 1.93622 0.0587158 3.41178C0.0587158 5.28536 1.4523 8.06988 4.31847 11.9244C7.38316 16.0455 11.0319 17.9655 12.5334 17.9655C13.9099 17.9655 15.2413 16.274 15.6699 15.4549C16.0837 14.6654 15.7288 14.0593 15.4832 13.8486" fill="#343434"/>
</svg>
