<svg width="23" height="21" viewBox="0 0 23 21" fill="none" xmlns="http://www.w3.org/2000/svg">
<path fill-rule="evenodd" clip-rule="evenodd" d="M0.546265 10.5173C0.546265 4.79349 5.35693 0.153442 11.2912 0.153442C17.2254 0.153442 22.0361 4.79349 22.0361 10.5173C22.0361 16.2411 17.2254 20.8811 11.2912 20.8811C5.35693 20.8811 0.546265 16.2411 0.546265 10.5173Z" fill="#343434"/>
<g clip-path="url(#clip0_70_655)">
<path d="M13.7551 5.52588H8.82725C7.22345 5.52588 5.9187 6.83063 5.9187 8.43443V13.3623C5.9187 14.966 7.22345 16.2708 8.82725 16.2708H13.7551C15.3589 16.2708 16.6636 14.966 16.6636 13.3623V8.43443C16.6636 6.83063 15.3589 5.52588 13.7551 5.52588ZM11.2912 13.8363C9.67112 13.8363 8.35317 12.5184 8.35317 10.8983C8.35317 9.2783 9.67112 7.96035 11.2912 7.96035C12.9112 7.96035 14.2291 9.2783 14.2291 10.8983C14.2291 12.5184 12.9112 13.8363 11.2912 13.8363ZM14.8366 8.65322C14.3579 8.65322 13.9685 8.26383 13.9685 7.78509C13.9685 7.30634 14.3579 6.91687 14.8366 6.91687C15.3154 6.91687 15.7048 7.30634 15.7048 7.78509C15.7048 8.26383 15.3154 8.65322 14.8366 8.65322Z" fill="#F8F8F8"/>
<path d="M11.2912 9.28662C10.4025 9.28662 9.67944 10.0096 9.67944 10.8984C9.67944 11.787 10.4025 12.5101 11.2912 12.5101C12.1799 12.5101 12.9029 11.787 12.9029 10.8984C12.9029 10.0096 12.1799 9.28662 11.2912 9.28662Z" fill="#F8F8F8"/>
</g>
<defs>
<clipPath id="clip0_70_655">
<rect width="10.7449" height="10.7449" fill="white" transform="translate(5.9187 5.52588)"/>
</clipPath>
</defs>
</svg>
