<svg width="23" height="21" viewBox="0 0 23 21" fill="none" xmlns="http://www.w3.org/2000/svg">
<path fill-rule="evenodd" clip-rule="evenodd" d="M0.864563 10.5173C0.864563 4.79349 5.67523 0.153442 11.6095 0.153442C17.5437 0.153442 22.3544 4.79349 22.3544 10.5173C22.3544 16.2411 17.5437 20.8811 11.6095 20.8811C5.67523 20.8811 0.864563 16.2411 0.864563 10.5173Z" fill="#343434"/>
<path d="M14.9705 11.5301C14.7794 11.2944 14.8341 11.1895 14.9705 10.9787C14.973 10.9763 16.5504 8.8466 16.713 8.12436L16.714 8.12387C16.7947 7.86067 16.714 7.66724 16.3234 7.66724H15.0311C14.7021 7.66724 14.5504 7.83324 14.4692 8.01898C14.4692 8.01898 13.8112 9.55778 12.8804 10.5553C12.58 10.8435 12.4411 10.9359 12.2771 10.9359C12.1963 10.9359 12.0707 10.8435 12.0707 10.5803V8.12387C12.0707 7.80822 11.9786 7.66724 11.7063 7.66724H9.67426C9.46791 7.66724 9.34528 7.81448 9.34528 7.95161C9.34528 8.25091 9.81068 8.31971 9.85895 9.16177V10.9888C9.85895 11.3891 9.78458 11.4628 9.61959 11.4628C9.18029 11.4628 8.11404 9.91771 7.48218 8.14938C7.35462 7.8063 7.23002 7.66772 6.89857 7.66772H5.60578C5.2369 7.66772 5.16254 7.83372 5.16254 8.01946C5.16254 8.34762 5.60184 9.9793 7.2054 12.135C8.2741 13.6064 9.77916 14.4037 11.1483 14.4037C11.9712 14.4037 12.0717 14.2267 12.0717 13.9221C12.0717 12.5161 11.9973 12.3833 12.4096 12.3833C12.6007 12.3833 12.9296 12.4756 13.6979 13.1854C14.576 14.027 14.7203 14.4037 15.2118 14.4037H16.5041C16.8725 14.4037 17.0592 14.2267 16.9518 13.8773C16.7061 13.1426 15.0454 11.6312 14.9705 11.5301V11.5301Z" fill="#F8F8F8"/>
</svg>
