<svg width="22" height="21" viewBox="0 0 22 21" fill="none" xmlns="http://www.w3.org/2000/svg">
<path fill-rule="evenodd" clip-rule="evenodd" d="M10.9278 0.153442C4.99349 0.153442 0.182831 4.79349 0.182831 10.5173C0.182831 16.2411 4.99349 20.8811 10.9278 20.8811C16.862 20.8811 21.6727 16.2411 21.6727 10.5173C21.6727 4.79349 16.862 0.153442 10.9278 0.153442ZM15.8358 7.29704C16.1739 7.63238 16.2843 8.39388 16.2843 8.39388C16.2843 8.39388 16.3971 9.28835 16.3971 10.1825V11.021C16.3971 11.9155 16.2843 12.8096 16.2843 12.8096C16.2843 12.8096 16.1739 13.5711 15.8358 13.9064C15.4492 14.3031 15.0206 14.3441 14.7783 14.3673C14.7517 14.3698 14.7273 14.3721 14.7055 14.3747C13.1267 14.4866 10.756 14.4901 10.756 14.4901C10.756 14.4901 7.82263 14.4638 6.92005 14.3789C6.87729 14.371 6.82545 14.3649 6.76675 14.358C6.48085 14.3245 6.03211 14.2717 5.67584 13.9064C5.33773 13.5711 5.22773 12.8096 5.22773 12.8096C5.22773 12.8096 5.11491 11.9155 5.11491 11.021V10.1825C5.11491 9.28835 5.22773 8.39388 5.22773 8.39388C5.22773 8.39388 5.33773 7.63238 5.67584 7.29704C6.06326 6.89978 6.4923 6.85924 6.73459 6.83634C6.76086 6.83386 6.78494 6.83158 6.80653 6.82908C8.38532 6.71719 10.7535 6.71719 10.7535 6.71719H10.7585C10.7585 6.71719 13.1267 6.71719 14.7055 6.82908C14.727 6.83159 14.7511 6.83387 14.7774 6.83635C15.0195 6.85925 15.4487 6.89985 15.8358 7.29704Z" fill="#343434"/>
<path fill-rule="evenodd" clip-rule="evenodd" d="M9.85362 12.1367L9.85327 8.96265L12.8992 10.5552L9.85362 12.1367Z" fill="#343434"/>
</svg>
